<?xml version="1.0" encoding="UTF-8" standalone="no"?>
<!DOCTYPE svg PUBLIC "-//W3C//DTD SVG 1.1//EN"
 "http://www.w3.org/Graphics/SVG/1.1/DTD/svg11.dtd">
<!-- Generated by graphviz version 2.36.0 (20140111.2315)
 -->
<!-- Title: G Pages: 1 -->
<svg width="526pt" height="852pt"
 viewBox="0.00 0.00 526.00 852.00" xmlns="http://www.w3.org/2000/svg" xmlns:xlink="http://www.w3.org/1999/xlink">
<g id="graph0" class="graph" transform="scale(1 1) rotate(0) translate(4 848)">
<title>G</title>
<polygon fill="white" stroke="none" points="-4,4 -4,-848 522,-848 522,4 -4,4"/>
<g id="clust1" class="cluster"><title>cluster_Global</title>
<path fill="none" stroke="gray" d="M20,-8C20,-8 498,-8 498,-8 504,-8 510,-14 510,-20 510,-20 510,-824 510,-824 510,-830 504,-836 498,-836 498,-836 20,-836 20,-836 14,-836 8,-830 8,-824 8,-824 8,-20 8,-20 8,-14 14,-8 20,-8"/>
<text text-anchor="middle" x="259" y="-823.2" font-family="Times,serif" font-size="11.00" fill="gray">Global</text>
</g>
<!-- \\wpAPIObjects -->
<g id="node1" class="node"><title>\\wpAPIObjects</title>
<polygon fill="none" stroke="black" points="478,-808 380,-808 380,-772 478,-772 478,-808"/>
<text text-anchor="middle" x="429" y="-787.2" font-family="Courier,monospace" font-size="11.00">wpAPIObjects</text>
</g>
<!-- \\wpAPIBasePage -->
<g id="node2" class="node"><title>\\wpAPIBasePage</title>
<polygon fill="none" stroke="black" points="120,-727 16,-727 16,-691 120,-691 120,-727"/>
<text text-anchor="start" x="34" y="-712.2" font-family="Courier,monospace" font-size="11.00">«abstract»</text>
<text text-anchor="start" x="24" y="-700.2" font-family="Courier,monospace" font-size="11.00">wpAPIBasePage</text>
</g>
<!-- \\Menu -->
<g id="node3" class="node"><title>\\Menu</title>
<polygon fill="none" stroke="black" points="456,-754 402,-754 402,-718 456,-718 456,-754"/>
<text text-anchor="middle" x="429" y="-733.2" font-family="Courier,monospace" font-size="11.00">Menu</text>
</g>
<!-- \\SubMenu -->
<g id="node5" class="node"><title>\\SubMenu</title>
<polygon fill="none" stroke="black" points="270,-754 206,-754 206,-718 270,-718 270,-754"/>
<text text-anchor="middle" x="238" y="-733.2" font-family="Courier,monospace" font-size="11.00">SubMenu</text>
</g>
<!-- \\Menu&#45;&gt;\\SubMenu -->
<g id="edge1" class="edge"><title>\\Menu&#45;&gt;\\SubMenu</title>
<path fill="none" stroke="black" d="M401.72,-736C370.333,-736 317.445,-736 280.512,-736"/>
<polygon fill="none" stroke="black" points="280.077,-732.5 270.077,-736 280.077,-739.5 280.077,-732.5"/>
</g>
<!-- \\PostType -->
<g id="node4" class="node"><title>\\PostType</title>
<polygon fill="none" stroke="black" points="273.5,-700 202.5,-700 202.5,-664 273.5,-664 273.5,-700"/>
<text text-anchor="middle" x="238" y="-679.2" font-family="Courier,monospace" font-size="11.00">PostType</text>
</g>
<!-- \\PostType&#45;&gt;\\wpAPIBasePage -->
<g id="edge2" class="edge"><title>\\PostType&#45;&gt;\\wpAPIBasePage</title>
<path fill="none" stroke="black" d="M202.19,-687.594C181.419,-690.933 154.451,-695.267 130.219,-699.161"/>
<polygon fill="none" stroke="black" points="129.345,-695.757 120.027,-700.799 130.456,-702.668 129.345,-695.757"/>
</g>
<!-- \\SubMenu&#45;&gt;\\wpAPIBasePage -->
<g id="edge3" class="edge"><title>\\SubMenu&#45;&gt;\\wpAPIBasePage</title>
<path fill="none" stroke="black" d="M205.794,-730.985C184.6,-727.579 155.865,-722.96 130.202,-718.836"/>
<polygon fill="none" stroke="black" points="130.598,-715.355 120.169,-717.224 129.487,-722.266 130.598,-715.355"/>
</g>
<!-- \\Checkbox -->
<g id="node6" class="node"><title>\\Checkbox</title>
<polygon fill="none" stroke="black" points="464.5,-700 393.5,-700 393.5,-664 464.5,-664 464.5,-700"/>
<text text-anchor="middle" x="429" y="-679.2" font-family="Courier,monospace" font-size="11.00">Checkbox</text>
</g>
<!-- \\BaseElement -->
<g id="node10" class="node"><title>\\BaseElement</title>
<polygon fill="none" stroke="black" points="283.5,-538 192.5,-538 192.5,-502 283.5,-502 283.5,-538"/>
<text text-anchor="start" x="204" y="-523.2" font-family="Courier,monospace" font-size="11.00">«abstract»</text>
<text text-anchor="start" x="200.5" y="-511.2" font-family="Courier,monospace" font-size="11.00">BaseElement</text>
</g>
<!-- \\Checkbox&#45;&gt;\\BaseElement -->
<g id="edge4" class="edge"><title>\\Checkbox&#45;&gt;\\BaseElement</title>
<path fill="none" stroke="black" d="M393.318,-672.885C380.88,-668.641 367.179,-662.775 356,-655 313.36,-625.342 276.439,-576.714 256.001,-546.628"/>
<polygon fill="none" stroke="black" points="258.904,-544.672 250.441,-538.297 253.081,-548.557 258.904,-544.672"/>
</g>
<!-- \\Link -->
<g id="node7" class="node"><title>\\Link</title>
<polygon fill="none" stroke="black" points="456,-646 402,-646 402,-610 456,-610 456,-646"/>
<text text-anchor="middle" x="429" y="-625.2" font-family="Courier,monospace" font-size="11.00">Link</text>
</g>
<!-- \\Link&#45;&gt;\\BaseElement -->
<g id="edge5" class="edge"><title>\\Link&#45;&gt;\\BaseElement</title>
<path fill="none" stroke="black" d="M401.672,-619.875C387.738,-615.144 370.549,-608.614 356,-601 325.003,-584.778 292.498,-561.718 269.639,-544.348"/>
<polygon fill="none" stroke="black" points="271.736,-541.546 261.673,-538.23 267.472,-547.097 271.736,-541.546"/>
</g>
<!-- \\Text -->
<g id="node8" class="node"><title>\\Text</title>
<polygon fill="none" stroke="black" points="456,-592 402,-592 402,-556 456,-556 456,-592"/>
<text text-anchor="middle" x="429" y="-571.2" font-family="Courier,monospace" font-size="11.00">Text</text>
</g>
<!-- \\Text&#45;&gt;\\BaseElement -->
<g id="edge6" class="edge"><title>\\Text&#45;&gt;\\BaseElement</title>
<path fill="none" stroke="black" d="M401.72,-566.492C373.814,-558.518 328.911,-545.689 293.338,-535.525"/>
<polygon fill="none" stroke="black" points="294.15,-532.117 283.573,-532.735 292.227,-538.848 294.15,-532.117"/>
</g>
<!-- \\wpAPIDateTime -->
<g id="node9" class="node"><title>\\wpAPIDateTime</title>
<polygon fill="none" stroke="black" points="481,-538 377,-538 377,-502 481,-502 481,-538"/>
<text text-anchor="middle" x="429" y="-517.2" font-family="Courier,monospace" font-size="11.00">wpAPIDateTime</text>
</g>
<!-- \\wpAPIDateTime&#45;&gt;\\BaseElement -->
<g id="edge7" class="edge"><title>\\wpAPIDateTime&#45;&gt;\\BaseElement</title>
<path fill="none" stroke="black" d="M376.854,-520C351.182,-520 320.06,-520 293.888,-520"/>
<polygon fill="none" stroke="black" points="293.751,-516.5 283.751,-520 293.751,-523.5 293.751,-516.5"/>
</g>
<!-- \\TextArea -->
<g id="node11" class="node"><title>\\TextArea</title>
<polygon fill="none" stroke="black" points="464.5,-484 393.5,-484 393.5,-448 464.5,-448 464.5,-484"/>
<text text-anchor="middle" x="429" y="-463.2" font-family="Courier,monospace" font-size="11.00">TextArea</text>
</g>
<!-- \\TextArea&#45;&gt;\\BaseElement -->
<g id="edge8" class="edge"><title>\\TextArea&#45;&gt;\\BaseElement</title>
<path fill="none" stroke="black" d="M393.334,-475.904C365.424,-483.879 325.683,-495.233 293.519,-504.423"/>
<polygon fill="none" stroke="black" points="292.455,-501.087 283.802,-507.2 294.378,-507.818 292.455,-501.087"/>
</g>
<!-- \\Select -->
<g id="node12" class="node"><title>\\Select</title>
<polygon fill="none" stroke="black" points="457.5,-430 400.5,-430 400.5,-394 457.5,-394 457.5,-430"/>
<text text-anchor="middle" x="429" y="-409.2" font-family="Courier,monospace" font-size="11.00">Select</text>
</g>
<!-- \\Select&#45;&gt;\\BaseElement -->
<g id="edge9" class="edge"><title>\\Select&#45;&gt;\\BaseElement</title>
<path fill="none" stroke="black" d="M400.303,-420.592C386.623,-425.281 370.075,-431.634 356,-439 325.003,-455.222 292.498,-478.282 269.639,-495.652"/>
<polygon fill="none" stroke="black" points="267.472,-492.903 261.673,-501.77 271.736,-498.454 267.472,-492.903"/>
</g>
<!-- \\Elements_Autoloader -->
<g id="node13" class="node"><title>\\Elements_Autoloader</title>
<polygon fill="none" stroke="black" points="501.5,-376 356.5,-376 356.5,-340 501.5,-340 501.5,-376"/>
<text text-anchor="middle" x="429" y="-355.2" font-family="Courier,monospace" font-size="11.00">Elements_Autoloader</text>
</g>
<!-- \\Uploader -->
<g id="node14" class="node"><title>\\Uploader</title>
<polygon fill="none" stroke="black" points="464.5,-322 393.5,-322 393.5,-286 464.5,-286 464.5,-322"/>
<text text-anchor="middle" x="429" y="-301.2" font-family="Courier,monospace" font-size="11.00">Uploader</text>
</g>
<!-- \\Uploader&#45;&gt;\\BaseElement -->
<g id="edge10" class="edge"><title>\\Uploader&#45;&gt;\\BaseElement</title>
<path fill="none" stroke="black" d="M393.341,-311.932C380.623,-316.079 366.729,-322.188 356,-331 301.865,-375.464 265.673,-451.905 249.199,-492.614"/>
<polygon fill="none" stroke="black" points="245.943,-491.33 245.527,-501.917 252.454,-493.9 245.943,-491.33"/>
</g>
<!-- \\wpAPIUtilities -->
<g id="node15" class="node"><title>\\wpAPIUtilities</title>
<polygon fill="none" stroke="black" points="484.5,-268 373.5,-268 373.5,-232 484.5,-232 484.5,-268"/>
<text text-anchor="middle" x="429" y="-247.2" font-family="Courier,monospace" font-size="11.00">wpAPIUtilities</text>
</g>
<!-- \\wpAPI -->
<g id="node16" class="node"><title>\\wpAPI</title>
<polygon fill="none" stroke="black" points="456,-214 402,-214 402,-178 456,-178 456,-214"/>
<text text-anchor="middle" x="429" y="-193.2" font-family="Courier,monospace" font-size="11.00">wpAPI</text>
</g>
<!-- \\wpAPI_VIEW -->
<g id="node17" class="node"><title>\\wpAPI_VIEW</title>
<polygon fill="none" stroke="black" points="471,-160 387,-160 387,-124 471,-124 471,-160"/>
<text text-anchor="middle" x="429" y="-139.2" font-family="Courier,monospace" font-size="11.00">wpAPI_VIEW</text>
</g>
<!-- \\WP_PERMISSIONS -->
<g id="node18" class="node"><title>\\WP_PERMISSIONS</title>
<polygon fill="none" stroke="black" points="484.5,-106 373.5,-106 373.5,-70 484.5,-70 484.5,-106"/>
<text text-anchor="middle" x="429" y="-85.2" font-family="Courier,monospace" font-size="11.00">WP_PERMISSIONS</text>
</g>
<!-- \\wpAPIPermissions -->
<g id="node19" class="node"><title>\\wpAPIPermissions</title>
<polygon fill="none" stroke="black" points="491.5,-52 366.5,-52 366.5,-16 491.5,-16 491.5,-52"/>
<text text-anchor="middle" x="429" y="-31.2" font-family="Courier,monospace" font-size="11.00">wpAPIPermissions</text>
</g>
</g>
</svg>
