<?xml version="1.0" encoding="UTF-8" standalone="no"?>
<!DOCTYPE svg PUBLIC "-//W3C//DTD SVG 1.1//EN"
 "http://www.w3.org/Graphics/SVG/1.1/DTD/svg11.dtd">
<!-- Generated by graphviz version 2.36.0 (20140111.2315)
 -->
<!-- Title: G Pages: 1 -->
<svg width="660pt" height="1104pt"
 viewBox="0.00 0.00 660.00 1104.00" xmlns="http://www.w3.org/2000/svg" xmlns:xlink="http://www.w3.org/1999/xlink">
<g id="graph0" class="graph" transform="scale(1 1) rotate(0) translate(4 1100)">
<title>G</title>
<polygon fill="white" stroke="none" points="-4,4 -4,-1100 656,-1100 656,4 -4,4"/>
<g id="clust1" class="cluster"><title>cluster_Global</title>
<path fill="none" stroke="gray" d="M20,-98C20,-98 632,-98 632,-98 638,-98 644,-104 644,-110 644,-110 644,-1076 644,-1076 644,-1082 638,-1088 632,-1088 632,-1088 20,-1088 20,-1088 14,-1088 8,-1082 8,-1076 8,-1076 8,-110 8,-110 8,-104 14,-98 20,-98"/>
<text text-anchor="middle" x="326" y="-1075.2" font-family="Times,serif" font-size="11.00" fill="gray">Global</text>
</g>
<!-- \\wpAPIObjects -->
<g id="node1" class="node"><title>\\wpAPIObjects</title>
<polygon fill="none" stroke="black" points="592,-1060 494,-1060 494,-1024 592,-1024 592,-1060"/>
<text text-anchor="middle" x="543" y="-1039.2" font-family="Courier,monospace" font-size="11.00">wpAPIObjects</text>
</g>
<!-- \\wpAPIBasePage -->
<g id="node2" class="node"><title>\\wpAPIBasePage</title>
<polygon fill="none" stroke="black" points="120,-1033 16,-1033 16,-997 120,-997 120,-1033"/>
<text text-anchor="start" x="34" y="-1018.2" font-family="Courier,monospace" font-size="11.00">«abstract»</text>
<text text-anchor="start" x="24" y="-1006.2" font-family="Courier,monospace" font-size="11.00">wpAPIBasePage</text>
</g>
<!-- \\Menu -->
<g id="node3" class="node"><title>\\Menu</title>
<polygon fill="none" stroke="black" points="570,-1006 516,-1006 516,-970 570,-970 570,-1006"/>
<text text-anchor="middle" x="543" y="-985.2" font-family="Courier,monospace" font-size="11.00">Menu</text>
</g>
<!-- \\SubMenu -->
<g id="node5" class="node"><title>\\SubMenu</title>
<polygon fill="none" stroke="black" points="317,-1006 253,-1006 253,-970 317,-970 317,-1006"/>
<text text-anchor="middle" x="285" y="-985.2" font-family="Courier,monospace" font-size="11.00">SubMenu</text>
</g>
<!-- \\Menu&#45;&gt;\\SubMenu -->
<g id="edge1" class="edge"><title>\\Menu&#45;&gt;\\SubMenu</title>
<path fill="none" stroke="black" d="M515.568,-988C470.895,-988 380.158,-988 327.118,-988"/>
<polygon fill="none" stroke="black" points="327.037,-984.5 317.037,-988 327.037,-991.5 327.037,-984.5"/>
</g>
<!-- \\PostType -->
<g id="node4" class="node"><title>\\PostType</title>
<polygon fill="none" stroke="black" points="320.5,-1060 249.5,-1060 249.5,-1024 320.5,-1024 320.5,-1060"/>
<text text-anchor="middle" x="285" y="-1039.2" font-family="Courier,monospace" font-size="11.00">PostType</text>
</g>
<!-- \\PostType&#45;&gt;\\wpAPIBasePage -->
<g id="edge2" class="edge"><title>\\PostType&#45;&gt;\\wpAPIBasePage</title>
<path fill="none" stroke="black" d="M249.457,-1037.66C217.421,-1033.64 169.018,-1027.56 130.404,-1022.71"/>
<polygon fill="none" stroke="black" points="130.664,-1019.22 120.306,-1021.44 129.792,-1026.16 130.664,-1019.22"/>
</g>
<!-- \\SubMenu&#45;&gt;\\wpAPIBasePage -->
<g id="edge3" class="edge"><title>\\SubMenu&#45;&gt;\\wpAPIBasePage</title>
<path fill="none" stroke="black" d="M252.737,-991.926C220.81,-995.935 170.399,-1002.27 130.449,-1007.28"/>
<polygon fill="none" stroke="black" points="129.76,-1003.84 120.274,-1008.56 130.632,-1010.79 129.76,-1003.84"/>
</g>
<!-- \\wpQueryObject -->
<g id="node6" class="node"><title>\\wpQueryObject</title>
<polygon fill="none" stroke="black" points="595,-952 491,-952 491,-916 595,-916 595,-952"/>
<text text-anchor="middle" x="543" y="-931.2" font-family="Courier,monospace" font-size="11.00">wpQueryObject</text>
</g>
<!-- \\PostTypeRow -->
<g id="node7" class="node"><title>\\PostTypeRow</title>
<polygon fill="none" stroke="black" points="588.5,-466 497.5,-466 497.5,-430 588.5,-430 588.5,-466"/>
<text text-anchor="middle" x="543" y="-445.2" font-family="Courier,monospace" font-size="11.00">PostTypeRow</text>
</g>
<!-- \\ArrayObject -->
<g id="node23" class="node"><title>\\ArrayObject</title>
<ellipse fill="none" stroke="black" cx="285" cy="-72" rx="57.3905" ry="18"/>
<text text-anchor="middle" x="285" y="-68.3" font-family="Times,serif" font-size="14.00" fill="gray">\ArrayObject</text>
</g>
<!-- \\PostTypeRow&#45;&gt;\\ArrayObject -->
<g id="edge4" class="edge"><title>\\PostTypeRow&#45;&gt;\\ArrayObject</title>
<path fill="none" stroke="black" d="M497.133,-444.439C480.22,-440.873 462.154,-434.02 450,-421 348.45,-312.219 482.277,-200.17 378,-94 370.675,-86.5417 361.304,-81.4323 351.358,-77.9647"/>
<polygon fill="none" stroke="black" points="352.275,-74.5863 341.694,-75.1201 350.299,-81.3014 352.275,-74.5863"/>
</g>
<!-- \\Checkbox -->
<g id="node8" class="node"><title>\\Checkbox</title>
<polygon fill="none" stroke="black" points="578.5,-682 507.5,-682 507.5,-646 578.5,-646 578.5,-682"/>
<text text-anchor="middle" x="543" y="-661.2" font-family="Courier,monospace" font-size="11.00">Checkbox</text>
</g>
<!-- \\BaseElement -->
<g id="node12" class="node"><title>\\BaseElement</title>
<polygon fill="none" stroke="black" points="330.5,-736 239.5,-736 239.5,-700 330.5,-700 330.5,-736"/>
<text text-anchor="start" x="251" y="-721.2" font-family="Courier,monospace" font-size="11.00">«abstract»</text>
<text text-anchor="start" x="247.5" y="-709.2" font-family="Courier,monospace" font-size="11.00">BaseElement</text>
</g>
<!-- \\Checkbox&#45;&gt;\\BaseElement -->
<g id="edge5" class="edge"><title>\\Checkbox&#45;&gt;\\BaseElement</title>
<path fill="none" stroke="black" d="M507.475,-671.283C464.701,-680.305 391.307,-695.787 340.807,-706.439"/>
<polygon fill="none" stroke="black" points="339.775,-703.08 330.713,-708.568 341.22,-709.929 339.775,-703.08"/>
</g>
<!-- \\Link -->
<g id="node9" class="node"><title>\\Link</title>
<polygon fill="none" stroke="black" points="570,-628 516,-628 516,-592 570,-592 570,-628"/>
<text text-anchor="middle" x="543" y="-607.2" font-family="Courier,monospace" font-size="11.00">Link</text>
</g>
<!-- \\Link&#45;&gt;\\BaseElement -->
<g id="edge6" class="edge"><title>\\Link&#45;&gt;\\BaseElement</title>
<path fill="none" stroke="black" d="M515.822,-616.388C497.189,-621.246 471.709,-628.527 450,-637 406.871,-653.833 359.675,-677.764 327.033,-695.249"/>
<polygon fill="none" stroke="black" points="325.368,-692.171 318.228,-699.999 328.691,-698.332 325.368,-692.171"/>
</g>
<!-- \\Text -->
<g id="node10" class="node"><title>\\Text</title>
<polygon fill="none" stroke="black" points="570,-574 516,-574 516,-538 570,-538 570,-574"/>
<text text-anchor="middle" x="543" y="-553.2" font-family="Courier,monospace" font-size="11.00">Text</text>
</g>
<!-- \\Text&#45;&gt;\\BaseElement -->
<g id="edge7" class="edge"><title>\\Text&#45;&gt;\\BaseElement</title>
<path fill="none" stroke="black" d="M515.943,-560.712C496.91,-564.839 470.888,-571.937 450,-583 394.42,-612.438 340.108,-662.569 310.042,-692.756"/>
<polygon fill="none" stroke="black" points="307.456,-690.394 302.935,-699.976 312.444,-695.305 307.456,-690.394"/>
</g>
<!-- \\wpAPIDateTime -->
<g id="node11" class="node"><title>\\wpAPIDateTime</title>
<polygon fill="none" stroke="black" points="595,-898 491,-898 491,-862 595,-862 595,-898"/>
<text text-anchor="middle" x="543" y="-877.2" font-family="Courier,monospace" font-size="11.00">wpAPIDateTime</text>
</g>
<!-- \\wpAPIDateTime&#45;&gt;\\BaseElement -->
<g id="edge8" class="edge"><title>\\wpAPIDateTime&#45;&gt;\\BaseElement</title>
<path fill="none" stroke="black" d="M490.908,-868.958C477.184,-864.946 462.651,-859.7 450,-853 394.42,-823.562 340.108,-773.431 310.042,-743.244"/>
<polygon fill="none" stroke="black" points="312.444,-740.695 302.935,-736.024 307.456,-745.606 312.444,-740.695"/>
</g>
<!-- \\TextArea -->
<g id="node13" class="node"><title>\\TextArea</title>
<polygon fill="none" stroke="black" points="578.5,-844 507.5,-844 507.5,-808 578.5,-808 578.5,-844"/>
<text text-anchor="middle" x="543" y="-823.2" font-family="Courier,monospace" font-size="11.00">TextArea</text>
</g>
<!-- \\TextArea&#45;&gt;\\BaseElement -->
<g id="edge9" class="edge"><title>\\TextArea&#45;&gt;\\BaseElement</title>
<path fill="none" stroke="black" d="M507.448,-817.385C489.986,-812.649 468.608,-806.263 450,-799 406.871,-782.167 359.675,-758.236 327.033,-740.751"/>
<polygon fill="none" stroke="black" points="328.691,-737.668 318.228,-736.001 325.368,-743.829 328.691,-737.668"/>
</g>
<!-- \\Select -->
<g id="node14" class="node"><title>\\Select</title>
<polygon fill="none" stroke="black" points="571.5,-790 514.5,-790 514.5,-754 571.5,-754 571.5,-790"/>
<text text-anchor="middle" x="543" y="-769.2" font-family="Courier,monospace" font-size="11.00">Select</text>
</g>
<!-- \\Select&#45;&gt;\\BaseElement -->
<g id="edge10" class="edge"><title>\\Select&#45;&gt;\\BaseElement</title>
<path fill="none" stroke="black" d="M514.116,-766.118C472.602,-757.361 393.733,-740.725 340.507,-729.497"/>
<polygon fill="none" stroke="black" points="341.059,-726.037 330.552,-727.398 339.614,-732.886 341.059,-726.037"/>
</g>
<!-- \\Elements_Autoloader -->
<g id="node15" class="node"><title>\\Elements_Autoloader</title>
<polygon fill="none" stroke="black" points="615.5,-520 470.5,-520 470.5,-484 615.5,-484 615.5,-520"/>
<text text-anchor="middle" x="543" y="-499.2" font-family="Courier,monospace" font-size="11.00">Elements_Autoloader</text>
</g>
<!-- \\Uploader -->
<g id="node16" class="node"><title>\\Uploader</title>
<polygon fill="none" stroke="black" points="578.5,-736 507.5,-736 507.5,-700 578.5,-700 578.5,-736"/>
<text text-anchor="middle" x="543" y="-715.2" font-family="Courier,monospace" font-size="11.00">Uploader</text>
</g>
<!-- \\Uploader&#45;&gt;\\BaseElement -->
<g id="edge11" class="edge"><title>\\Uploader&#45;&gt;\\BaseElement</title>
<path fill="none" stroke="black" d="M507.475,-718C464.701,-718 391.307,-718 340.807,-718"/>
<polygon fill="none" stroke="black" points="340.713,-714.5 330.713,-718 340.713,-721.5 340.713,-714.5"/>
</g>
<!-- \\wpAPIUtilities -->
<g id="node17" class="node"><title>\\wpAPIUtilities</title>
<polygon fill="none" stroke="black" points="598.5,-412 487.5,-412 487.5,-376 598.5,-376 598.5,-412"/>
<text text-anchor="middle" x="543" y="-391.2" font-family="Courier,monospace" font-size="11.00">wpAPIUtilities</text>
</g>
<!-- \\wpAPI -->
<g id="node18" class="node"><title>\\wpAPI</title>
<polygon fill="none" stroke="black" points="570,-358 516,-358 516,-322 570,-322 570,-358"/>
<text text-anchor="middle" x="543" y="-337.2" font-family="Courier,monospace" font-size="11.00">wpAPI</text>
</g>
<!-- \\wpAPI_VIEW -->
<g id="node19" class="node"><title>\\wpAPI_VIEW</title>
<polygon fill="none" stroke="black" points="585,-304 501,-304 501,-268 585,-268 585,-304"/>
<text text-anchor="middle" x="543" y="-283.2" font-family="Courier,monospace" font-size="11.00">wpAPI_VIEW</text>
</g>
<!-- \\WP_PERMISSIONS -->
<g id="node20" class="node"><title>\\WP_PERMISSIONS</title>
<polygon fill="none" stroke="black" points="598.5,-250 487.5,-250 487.5,-214 598.5,-214 598.5,-250"/>
<text text-anchor="middle" x="543" y="-229.2" font-family="Courier,monospace" font-size="11.00">WP_PERMISSIONS</text>
</g>
<!-- \\wpAPIPermissions -->
<g id="node21" class="node"><title>\\wpAPIPermissions</title>
<polygon fill="none" stroke="black" points="605.5,-196 480.5,-196 480.5,-160 605.5,-160 605.5,-196"/>
<text text-anchor="middle" x="543" y="-175.2" font-family="Courier,monospace" font-size="11.00">wpAPIPermissions</text>
</g>
<!-- \\MyRecursiveFilterIterator -->
<g id="node22" class="node"><title>\\MyRecursiveFilterIterator</title>
<polygon fill="none" stroke="black" points="635.5,-142 450.5,-142 450.5,-106 635.5,-106 635.5,-142"/>
<text text-anchor="middle" x="543" y="-121.2" font-family="Courier,monospace" font-size="11.00">MyRecursiveFilterIterator</text>
</g>
<!-- \\RecursiveFilterIterator -->
<g id="node24" class="node"><title>\\RecursiveFilterIterator</title>
<ellipse fill="none" stroke="black" cx="285" cy="-18" rx="92.8835" ry="18"/>
<text text-anchor="middle" x="285" y="-14.3" font-family="Times,serif" font-size="14.00" fill="gray">\RecursiveFilterIterator</text>
</g>
<!-- \\MyRecursiveFilterIterator&#45;&gt;\\RecursiveFilterIterator -->
<g id="edge12" class="edge"><title>\\MyRecursiveFilterIterator&#45;&gt;\\RecursiveFilterIterator</title>
<path fill="none" stroke="black" d="M508.479,-105.85C475.827,-88.6532 424.457,-62.8688 378,-45 369.237,-41.6293 359.869,-38.4332 350.588,-35.4984"/>
<polygon fill="none" stroke="black" points="351.564,-32.1369 340.977,-32.5382 349.503,-38.8268 351.564,-32.1369"/>
</g>
</g>
</svg>
