<?xml version="1.0" encoding="UTF-8" standalone="no"?>
<!DOCTYPE svg PUBLIC "-//W3C//DTD SVG 1.1//EN"
 "http://www.w3.org/Graphics/SVG/1.1/DTD/svg11.dtd">
<!-- Generated by graphviz version 2.36.0 (20140111.2315)
 -->
<!-- Title: G Pages: 1 -->
<svg width="548pt" height="996pt"
 viewBox="0.00 0.00 548.00 996.00" xmlns="http://www.w3.org/2000/svg" xmlns:xlink="http://www.w3.org/1999/xlink">
<g id="graph0" class="graph" transform="scale(1 1) rotate(0) translate(4 992)">
<title>G</title>
<polygon fill="white" stroke="none" points="-4,4 -4,-992 544,-992 544,4 -4,4"/>
<g id="clust1" class="cluster"><title>cluster_Global</title>
<path fill="none" stroke="gray" d="M20,-44C20,-44 520,-44 520,-44 526,-44 532,-50 532,-56 532,-56 532,-968 532,-968 532,-974 526,-980 520,-980 520,-980 20,-980 20,-980 14,-980 8,-974 8,-968 8,-968 8,-56 8,-56 8,-50 14,-44 20,-44"/>
<text text-anchor="middle" x="270" y="-967.2" font-family="Times,serif" font-size="11.00" fill="gray">Global</text>
</g>
<!-- \\wpAPIObjects -->
<g id="node1" class="node"><title>\\wpAPIObjects</title>
<polygon fill="none" stroke="black" points="500,-952 402,-952 402,-916 500,-916 500,-952"/>
<text text-anchor="middle" x="451" y="-931.2" font-family="Courier,monospace" font-size="11.00">wpAPIObjects</text>
</g>
<!-- \\wpAPIBasePage -->
<g id="node2" class="node"><title>\\wpAPIBasePage</title>
<polygon fill="none" stroke="black" points="120,-925 16,-925 16,-889 120,-889 120,-925"/>
<text text-anchor="start" x="34" y="-910.2" font-family="Courier,monospace" font-size="11.00">«abstract»</text>
<text text-anchor="start" x="24" y="-898.2" font-family="Courier,monospace" font-size="11.00">wpAPIBasePage</text>
</g>
<!-- \\Menu -->
<g id="node3" class="node"><title>\\Menu</title>
<polygon fill="none" stroke="black" points="478,-898 424,-898 424,-862 478,-862 478,-898"/>
<text text-anchor="middle" x="451" y="-877.2" font-family="Courier,monospace" font-size="11.00">Menu</text>
</g>
<!-- \\SubMenu -->
<g id="node5" class="node"><title>\\SubMenu</title>
<polygon fill="none" stroke="black" points="281,-898 217,-898 217,-862 281,-862 281,-898"/>
<text text-anchor="middle" x="249" y="-877.2" font-family="Courier,monospace" font-size="11.00">SubMenu</text>
</g>
<!-- \\Menu&#45;&gt;\\SubMenu -->
<g id="edge1" class="edge"><title>\\Menu&#45;&gt;\\SubMenu</title>
<path fill="none" stroke="black" d="M423.853,-880C390.126,-880 331.074,-880 291.262,-880"/>
<polygon fill="none" stroke="black" points="291.082,-876.5 281.082,-880 291.082,-883.5 291.082,-876.5"/>
</g>
<!-- \\PostType -->
<g id="node4" class="node"><title>\\PostType</title>
<polygon fill="none" stroke="black" points="284.5,-952 213.5,-952 213.5,-916 284.5,-916 284.5,-952"/>
<text text-anchor="middle" x="249" y="-931.2" font-family="Courier,monospace" font-size="11.00">PostType</text>
</g>
<!-- \\PostType&#45;&gt;\\wpAPIBasePage -->
<g id="edge2" class="edge"><title>\\PostType&#45;&gt;\\wpAPIBasePage</title>
<path fill="none" stroke="black" d="M213.487,-928.794C189.872,-925.232 157.917,-920.412 130.063,-916.211"/>
<polygon fill="none" stroke="black" points="130.42,-912.725 120.01,-914.694 129.376,-919.647 130.42,-912.725"/>
</g>
<!-- \\SubMenu&#45;&gt;\\wpAPIBasePage -->
<g id="edge3" class="edge"><title>\\SubMenu&#45;&gt;\\wpAPIBasePage</title>
<path fill="none" stroke="black" d="M216.821,-884.703C192.987,-888.298 159.379,-893.367 130.231,-897.764"/>
<polygon fill="none" stroke="black" points="129.496,-894.335 120.129,-899.288 130.54,-901.257 129.496,-894.335"/>
</g>
<!-- \\wpQueryObject -->
<g id="node6" class="node"><title>\\wpQueryObject</title>
<polygon fill="none" stroke="black" points="503,-844 399,-844 399,-808 503,-808 503,-844"/>
<text text-anchor="middle" x="451" y="-823.2" font-family="Courier,monospace" font-size="11.00">wpQueryObject</text>
</g>
<!-- \\PostTypeRow -->
<g id="node7" class="node"><title>\\PostTypeRow</title>
<polygon fill="none" stroke="black" points="496.5,-358 405.5,-358 405.5,-322 496.5,-322 496.5,-358"/>
<text text-anchor="middle" x="451" y="-337.2" font-family="Courier,monospace" font-size="11.00">PostTypeRow</text>
</g>
<!-- \\ArrayObject -->
<g id="node22" class="node"><title>\\ArrayObject</title>
<ellipse fill="none" stroke="black" cx="249" cy="-18" rx="57.3905" ry="18"/>
<text text-anchor="middle" x="249" y="-14.3" font-family="Times,serif" font-size="14.00" fill="gray">\ArrayObject</text>
</g>
<!-- \\PostTypeRow&#45;&gt;\\ArrayObject -->
<g id="edge4" class="edge"><title>\\PostTypeRow&#45;&gt;\\ArrayObject</title>
<path fill="none" stroke="black" d="M405.228,-330.645C395.122,-326.671 385.251,-321.022 378,-313 293.858,-219.909 389.415,-133.743 306,-40 304.62,-38.4491 303.117,-37.0063 301.518,-35.6644"/>
<polygon fill="none" stroke="black" points="303.086,-32.4977 292.851,-29.7597 299.144,-38.2827 303.086,-32.4977"/>
</g>
<!-- \\Checkbox -->
<g id="node8" class="node"><title>\\Checkbox</title>
<polygon fill="none" stroke="black" points="486.5,-628 415.5,-628 415.5,-592 486.5,-592 486.5,-628"/>
<text text-anchor="middle" x="451" y="-607.2" font-family="Courier,monospace" font-size="11.00">Checkbox</text>
</g>
<!-- \\BaseElement -->
<g id="node12" class="node"><title>\\BaseElement</title>
<polygon fill="none" stroke="black" points="294.5,-628 203.5,-628 203.5,-592 294.5,-592 294.5,-628"/>
<text text-anchor="start" x="215" y="-613.2" font-family="Courier,monospace" font-size="11.00">«abstract»</text>
<text text-anchor="start" x="211.5" y="-601.2" font-family="Courier,monospace" font-size="11.00">BaseElement</text>
</g>
<!-- \\Checkbox&#45;&gt;\\BaseElement -->
<g id="edge5" class="edge"><title>\\Checkbox&#45;&gt;\\BaseElement</title>
<path fill="none" stroke="black" d="M415.163,-610C384.706,-610 339.966,-610 304.73,-610"/>
<polygon fill="none" stroke="black" points="304.596,-606.5 294.596,-610 304.596,-613.5 304.596,-606.5"/>
</g>
<!-- \\Link -->
<g id="node9" class="node"><title>\\Link</title>
<polygon fill="none" stroke="black" points="478,-574 424,-574 424,-538 478,-538 478,-574"/>
<text text-anchor="middle" x="451" y="-553.2" font-family="Courier,monospace" font-size="11.00">Link</text>
</g>
<!-- \\Link&#45;&gt;\\BaseElement -->
<g id="edge6" class="edge"><title>\\Link&#45;&gt;\\BaseElement</title>
<path fill="none" stroke="black" d="M423.853,-563.06C393.722,-571.195 343.379,-584.788 304.599,-595.258"/>
<polygon fill="none" stroke="black" points="303.245,-591.998 294.503,-597.984 305.07,-598.756 303.245,-591.998"/>
</g>
<!-- \\Text -->
<g id="node10" class="node"><title>\\Text</title>
<polygon fill="none" stroke="black" points="478,-520 424,-520 424,-484 478,-484 478,-520"/>
<text text-anchor="middle" x="451" y="-499.2" font-family="Courier,monospace" font-size="11.00">Text</text>
</g>
<!-- \\Text&#45;&gt;\\BaseElement -->
<g id="edge7" class="edge"><title>\\Text&#45;&gt;\\BaseElement</title>
<path fill="none" stroke="black" d="M423.797,-510.37C409.898,-515.17 392.703,-521.688 378,-529 344.509,-545.655 308.722,-568.806 283.527,-586.094"/>
<polygon fill="none" stroke="black" points="281.308,-583.374 275.079,-591.944 285.293,-589.129 281.308,-583.374"/>
</g>
<!-- \\wpAPIDateTime -->
<g id="node11" class="node"><title>\\wpAPIDateTime</title>
<polygon fill="none" stroke="black" points="503,-466 399,-466 399,-430 503,-430 503,-466"/>
<text text-anchor="middle" x="451" y="-445.2" font-family="Courier,monospace" font-size="11.00">wpAPIDateTime</text>
</g>
<!-- \\wpAPIDateTime&#45;&gt;\\BaseElement -->
<g id="edge8" class="edge"><title>\\wpAPIDateTime&#45;&gt;\\BaseElement</title>
<path fill="none" stroke="black" d="M398.995,-463.793C391.679,-466.996 384.454,-470.722 378,-475 332.917,-504.885 292.042,-553.443 269.162,-583.453"/>
<polygon fill="none" stroke="black" points="266.129,-581.664 262.925,-591.763 271.727,-585.866 266.129,-581.664"/>
</g>
<!-- \\TextArea -->
<g id="node13" class="node"><title>\\TextArea</title>
<polygon fill="none" stroke="black" points="486.5,-790 415.5,-790 415.5,-754 486.5,-754 486.5,-790"/>
<text text-anchor="middle" x="451" y="-769.2" font-family="Courier,monospace" font-size="11.00">TextArea</text>
</g>
<!-- \\TextArea&#45;&gt;\\BaseElement -->
<g id="edge9" class="edge"><title>\\TextArea&#45;&gt;\\BaseElement</title>
<path fill="none" stroke="black" d="M415.138,-762.485C402.816,-758.224 389.238,-752.45 378,-745 332.917,-715.115 292.042,-666.557 269.162,-636.547"/>
<polygon fill="none" stroke="black" points="271.727,-634.134 262.925,-628.237 266.129,-638.336 271.727,-634.134"/>
</g>
<!-- \\Select -->
<g id="node14" class="node"><title>\\Select</title>
<polygon fill="none" stroke="black" points="479.5,-736 422.5,-736 422.5,-700 479.5,-700 479.5,-736"/>
<text text-anchor="middle" x="451" y="-715.2" font-family="Courier,monospace" font-size="11.00">Select</text>
</g>
<!-- \\Select&#45;&gt;\\BaseElement -->
<g id="edge10" class="edge"><title>\\Select&#45;&gt;\\BaseElement</title>
<path fill="none" stroke="black" d="M422.431,-709.156C408.783,-704.405 392.225,-698.074 378,-691 344.509,-674.345 308.722,-651.194 283.527,-633.906"/>
<polygon fill="none" stroke="black" points="285.293,-630.871 275.079,-628.056 281.308,-636.626 285.293,-630.871"/>
</g>
<!-- \\Elements_Autoloader -->
<g id="node15" class="node"><title>\\Elements_Autoloader</title>
<polygon fill="none" stroke="black" points="523.5,-412 378.5,-412 378.5,-376 523.5,-376 523.5,-412"/>
<text text-anchor="middle" x="451" y="-391.2" font-family="Courier,monospace" font-size="11.00">Elements_Autoloader</text>
</g>
<!-- \\Uploader -->
<g id="node16" class="node"><title>\\Uploader</title>
<polygon fill="none" stroke="black" points="486.5,-682 415.5,-682 415.5,-646 486.5,-646 486.5,-682"/>
<text text-anchor="middle" x="451" y="-661.2" font-family="Courier,monospace" font-size="11.00">Uploader</text>
</g>
<!-- \\Uploader&#45;&gt;\\BaseElement -->
<g id="edge11" class="edge"><title>\\Uploader&#45;&gt;\\BaseElement</title>
<path fill="none" stroke="black" d="M415.163,-654.594C384.575,-646.335 339.581,-634.187 304.277,-624.655"/>
<polygon fill="none" stroke="black" points="305.163,-621.269 294.596,-622.041 303.338,-628.027 305.163,-621.269"/>
</g>
<!-- \\wpAPIUtilities -->
<g id="node17" class="node"><title>\\wpAPIUtilities</title>
<polygon fill="none" stroke="black" points="506.5,-304 395.5,-304 395.5,-268 506.5,-268 506.5,-304"/>
<text text-anchor="middle" x="451" y="-283.2" font-family="Courier,monospace" font-size="11.00">wpAPIUtilities</text>
</g>
<!-- \\wpAPI -->
<g id="node18" class="node"><title>\\wpAPI</title>
<polygon fill="none" stroke="black" points="478,-250 424,-250 424,-214 478,-214 478,-250"/>
<text text-anchor="middle" x="451" y="-229.2" font-family="Courier,monospace" font-size="11.00">wpAPI</text>
</g>
<!-- \\wpAPI_VIEW -->
<g id="node19" class="node"><title>\\wpAPI_VIEW</title>
<polygon fill="none" stroke="black" points="493,-196 409,-196 409,-160 493,-160 493,-196"/>
<text text-anchor="middle" x="451" y="-175.2" font-family="Courier,monospace" font-size="11.00">wpAPI_VIEW</text>
</g>
<!-- \\WP_PERMISSIONS -->
<g id="node20" class="node"><title>\\WP_PERMISSIONS</title>
<polygon fill="none" stroke="black" points="506.5,-142 395.5,-142 395.5,-106 506.5,-106 506.5,-142"/>
<text text-anchor="middle" x="451" y="-121.2" font-family="Courier,monospace" font-size="11.00">WP_PERMISSIONS</text>
</g>
<!-- \\wpAPIPermissions -->
<g id="node21" class="node"><title>\\wpAPIPermissions</title>
<polygon fill="none" stroke="black" points="513.5,-88 388.5,-88 388.5,-52 513.5,-52 513.5,-88"/>
<text text-anchor="middle" x="451" y="-67.2" font-family="Courier,monospace" font-size="11.00">wpAPIPermissions</text>
</g>
</g>
</svg>
